<svg width="245" height="144" viewBox="0 0 245 144" fill="none" xmlns="http://www.w3.org/2000/svg">
<g clip-path="url(#clip0)">
<path d="M122.451 4.85641C119.713 6.99057 117.498 9.72122 115.975 12.8404C114.452 15.9596 113.66 19.3852 113.661 22.8564C113.661 23.2164 113.661 23.5864 113.661 23.9464H123.181L108.361 36.6864L94.6607 23.9464L103.661 23.8164C103.661 23.8164 102.331 17.8164 106.181 9.48641C110.031 1.15641 111.461 0.206447 111.461 0.206447C106.74 -0.433262 101.938 0.422346 97.7285 2.65304C93.5193 4.88374 90.1149 8.37735 87.9939 12.6428C85.8729 16.9083 85.1418 21.7313 85.9035 26.4337C86.6651 31.1362 88.8811 35.4818 92.2401 38.8597C95.5991 42.2376 99.9322 44.478 104.63 45.266C109.328 46.054 114.155 45.3501 118.433 43.253C122.71 41.156 126.223 37.7713 128.477 33.5747C130.731 29.3781 131.614 24.5805 131.001 19.8564H122.401L136.751 6.98641L150.681 19.8564L140.911 19.7264C140.911 19.7264 142.321 24.2364 139.531 32.9864C136.741 41.7364 131.961 45.2765 131.961 45.2765C133.459 45.5741 134.983 45.7248 136.511 45.7264C140.153 45.7294 143.743 44.8621 146.983 43.1966C150.222 41.5311 153.016 39.1157 155.133 36.1516C157.25 33.1875 158.628 29.7605 159.152 26.1561C159.676 22.5517 159.331 18.8742 158.146 15.43C156.961 11.9857 154.971 8.87446 152.34 6.35537C149.709 3.83628 146.515 1.98232 143.022 0.947841C139.53 -0.0866369 135.841 -0.271654 132.263 0.408229C128.684 1.08811 125.32 2.61316 122.451 4.85641Z" fill="#0540F2"/>
<path d="M68.0117 64.3124C70.707 64.3124 73.0039 65.2733 74.9023 67.1952C76.8242 69.0936 77.7852 71.3905 77.7852 74.0858V105.058C77.7852 107.754 76.8242 110.062 74.9023 111.984C73.0039 113.883 70.707 114.832 68.0117 114.832H44V64.3124H68.0117ZM68.9609 102.738V76.4061C68.9609 75.492 68.6445 74.7186 68.0117 74.0858C67.3789 73.453 66.6055 73.1366 65.6914 73.1366H52.8242V103.969L48.7812 106.008H52.8242H54.3008H65.6914C66.6055 106.008 67.3789 105.691 68.0117 105.058C68.6445 104.426 68.9609 103.652 68.9609 102.738ZM93.1484 78.7967H112.801V104.637C112.801 107.519 111.781 109.98 109.742 112.019C107.703 114.035 105.254 115.043 102.395 115.043H82.7422V89.2381C82.7422 86.3553 83.7617 83.8944 85.8008 81.8553C87.8398 79.8163 90.2891 78.7967 93.1484 78.7967ZM103.203 105.375V87.867L107.422 85.828H100.426H97.1914H94.9766C94.25 85.828 93.6289 86.0858 93.1133 86.6014C92.5977 87.117 92.3398 87.7381 92.3398 88.4647V108.012H100.566C101.293 108.012 101.914 107.754 102.43 107.238C102.945 106.723 103.203 106.101 103.203 105.375ZM127.531 115.043H117.969V89.2381C117.969 86.3553 118.977 83.8944 120.992 81.8553C123.031 79.8163 125.492 78.7967 128.375 78.7967H140.258V85.828H130.203C129.453 85.828 128.82 86.0858 128.305 86.6014C127.789 87.117 127.531 87.7381 127.531 88.4647V115.043ZM156.57 108.012H166.133V115.043H154.602C151.719 115.043 149.258 114.035 147.219 112.019C145.203 109.98 144.195 107.519 144.195 104.637V104.426V64.3475H153.793V78.5155H162.195V86.0389H153.793V104.426V105.234C153.793 106.008 154.062 106.664 154.602 107.203C155.141 107.742 155.797 108.012 156.57 108.012ZM184.555 108.012H194.117V115.043H182.586C179.703 115.043 177.242 114.035 175.203 112.019C173.188 109.98 172.18 107.519 172.18 104.637V104.426V64.3475H181.777V78.5155H190.18V86.0389H181.777V104.426V105.234C181.777 106.008 182.047 106.664 182.586 107.203C183.125 107.742 183.781 108.012 184.555 108.012Z" fill="#0C154A"/>
</g>
<defs>
<clipPath id="clip0">
<rect width="245" height="143.726" fill="white"/>
</clipPath>
</defs>
</svg>
