<?xml version="1.0" encoding="utf-8"?>
<!-- Generator: Adobe Illustrator 24.0.1, SVG Export Plug-In . SVG Version: 6.00 Build 0)  -->
<svg version="1.1" id="Layer_1" xmlns="http://www.w3.org/2000/svg" xmlns:xlink="http://www.w3.org/1999/xlink" x="0px" y="0px"
	 viewBox="0 0 389 133" style="enable-background:new 0 0 389 133;" xml:space="preserve">
<style type="text/css">
	.st0{fill:#011826;}
	.st1{fill:#0388A6;}
	.st2{fill:#44E1F2;}
</style>
<path class="st0" d="M109.9,43.1h5.1c14.3,0,19.9,4.6,19.9,21.6c0,15.5-6.8,22.1-19.3,22.1h-5.7V43.1z M118.3,105.9
	c26.3,0,43.5-11.8,43.5-42.7c0-27-16.4-39.3-42.8-39.3H93c-5.5,0-10,4.5-10,10v71.9H118.3z"/>
<path class="st0" d="M202.3,60.5c6.1-0.3,10,6.3,10,15c0,11.3-3.9,16.2-10.2,16.2c-6,0-10.2-4.9-10.2-16.2
	C191.8,68.8,194.2,60.5,202.3,60.5z M168.1,76.8c0,20.4,14.8,30.8,33.9,30.8S236,97.4,236,75.5c0-18.5-13-30.9-34-30.9
	C181.8,44.6,168.1,56.1,168.1,76.8z"/>
<path class="st0" d="M246,105.9h23.7V85.3c0-12.9,4.9-17.4,14.6-17.4c1.6,0,3.3,0.5,4.9,0.7V44.9c-1-0.1-2-0.3-3.1-0.3
	c-9.2,0-15,4.4-18.3,13.8h-0.2V46.3H246V105.9z"/>
<path class="st0" d="M337.4,89h-3.8c-6.6,0-7.4-1.9-7.4-7.4V60h11.4V46.3h-11.4V27.8H303v18.5h-8.8V60h8.4v24.9
	c0,20.6,3.8,22.8,34.8,21V89z"/>
<path class="st0" d="M388,89h-3.8c-6.6,0-7.4-1.9-7.4-7.4V60h11.4V46.3h-11.4V27.8h-23.3v18.5h-8.8V60h8.4v24.9
	c0,20.6,3.8,22.8,34.8,21V89z"/>
<path class="st1" d="M17,0h-7C4.5,0,0,4.5,0,10v113c0,5.5,4.5,10,10,10h7c5.5,0,10-4.5,10-10V10C27,4.5,22.5,0,17,0z"/>
<path class="st2" d="M58,0h-6c-5.5,0-10,4.5-10,10v113c0,5.5,4.5,10,10,10h6c5.5,0,10-4.5,10-10V10C68,4.5,63.5,0,58,0z"/>
</svg>
