<svg width="4374" height="4624" viewBox="0 0 4374 4624" fill="none" xmlns="http://www.w3.org/2000/svg">
<g clip-path="url(#clip0)">
<path d="M16.6336 2114.79C-74.154 1456.97 214.109 646.29 700.425 458.495C1094.88 306.214 1297.55 688.151 1911.48 631.54C2669.33 561.663 2828.83 -63.5265 3262.58 5.27974C3938.79 112.486 4183.56 1731.78 4333.58 2724.57C4414.65 3260.68 4598.36 4476.12 4210 4644.55C3956.84 4754.31 3729.54 4302.42 3163.72 4314.94C2748.01 4324.09 2695.12 4571.96 2109.2 4743.44C1714.41 4858.96 964.714 4972.93 708.663 4636.31C563.667 4445.63 700.837 4273.16 692.186 3853.49C675.05 3023.44 121.427 2874.05 16.6336 2114.79Z" fill="#F8F8F8"/>
<path d="M617.704 2070.69C884.631 1198.87 1920.62 847.671 2347.78 702.808C2689.1 587.115 2892.67 521.358 3105.72 612.165C3365.15 722.751 3345.37 940.457 3748.32 1510.35C4051.98 1939.75 4174.9 1974.2 4275.58 2268.46C4286.12 2299.2 4393.47 2624.27 4333.25 2993.6C4183.96 3909.1 3093.44 4553.73 2224.2 4542.77C2043.7 4540.47 1748.19 4532.8 1598.08 4336.77C1406.45 4086.51 1675.85 3821.92 1532.17 3471.54C1345.65 3016.68 735.019 3081.2 576.511 2622.79C508.709 2426.67 563.083 2249.01 617.704 2070.69Z" fill="#0088A9"/>
<path d="M893.912 1862H849V2385.25V2430.16H893.912H1134.09V2385.25H893.912V1862Z" fill="#E6E6F0"/>
<path d="M1244.91 1862H1200V2430.16H1485.09V1862H1244.91ZM1440.18 2385.25H1244.91V1906.91H1440.18V2385.25Z" fill="#E6E6F0"/>
<path d="M1791.18 2145.1H1754.08V2190.01H1791.18V2385.25H1595.91V1906.91H1836.09V1862H1595.91H1551V1906.91V2385.25V2430.16H1595.91H1791.18H1836.09V2385.25V2190.01H1873.19V2145.1H1836.09H1791.18Z" fill="#E6E6F0"/>
<path d="M2179.18 1862H1939V2430.16H2224.09V1862H2179.18ZM2179.18 2385.25H1983.91V1906.91H2179.18V2385.25Z" fill="#E6E6F0"/>
<path d="M2211.02 3201.32C2197.99 3250.94 2152.34 3281.94 2152.34 3281.94C2152.34 3281.94 2127.81 3232.5 2140.84 3182.88C2153.87 3133.26 2199.52 3102.25 2199.52 3102.25C2199.52 3102.25 2224.05 3151.7 2211.02 3201.32Z" fill="#3F3D56"/>
<path d="M2191.26 3190.82C2154.77 3226.87 2150.69 3281.92 2150.69 3281.92C2150.69 3281.92 2205.77 3278.5 2242.26 3242.44C2278.75 3206.39 2282.83 3151.35 2282.83 3151.35C2282.83 3151.35 2227.75 3154.76 2191.26 3190.82Z" fill="#6C63FF"/>
<path d="M2237.02 3267.42H2094.29C2078.63 3267.42 2065.94 3280.11 2065.94 3295.77V3323.94C2065.94 3339.6 2078.63 3352.29 2094.29 3352.29H2237.02C2252.67 3352.29 2265.37 3339.6 2265.37 3323.94V3295.77C2265.37 3280.11 2252.67 3267.42 2237.02 3267.42Z" fill="#6C63FF"/>
<g opacity="0.7">
<path opacity="0.7" d="M3609.34 3213.2V3182.61H3456.45V3324.06C3456.45 3327.98 3457.22 3331.86 3458.71 3335.47C3460.21 3339.09 3462.41 3342.38 3465.18 3345.15C3467.95 3347.92 3471.23 3350.11 3474.85 3351.61C3478.47 3353.11 3482.34 3353.88 3486.26 3353.88H3579.53C3587.43 3353.88 3595.02 3350.74 3600.61 3345.15C3606.2 3339.56 3609.34 3331.97 3609.34 3324.06V3292.71C3619.87 3292.69 3629.96 3288.5 3637.4 3281.04C3644.84 3273.59 3649.02 3263.49 3649.02 3252.96C3649.02 3242.42 3644.84 3232.32 3637.4 3224.87C3629.96 3217.42 3619.87 3213.22 3609.34 3213.2ZM3609.34 3277.42V3228.49C3615.83 3228.49 3622.05 3231.07 3626.64 3235.65C3631.23 3240.24 3633.8 3246.47 3633.8 3252.96C3633.8 3259.44 3631.23 3265.67 3626.64 3270.26C3622.05 3274.84 3615.83 3277.42 3609.34 3277.42Z" fill="url(#paint0_linear)"/>
</g>
<path d="M3604.42 3217.98C3597.24 3217.98 3590.22 3220.11 3584.26 3224.1C3578.29 3228.09 3573.63 3233.76 3570.89 3240.39C3568.14 3247.03 3567.42 3254.33 3568.82 3261.37C3570.22 3268.41 3573.68 3274.88 3578.76 3279.95C3583.83 3285.03 3590.3 3288.49 3597.34 3289.89C3604.38 3291.29 3611.68 3290.57 3618.31 3287.82C3624.94 3285.08 3630.61 3280.42 3634.6 3274.45C3638.59 3268.48 3640.72 3261.47 3640.72 3254.29C3640.72 3244.66 3636.89 3235.42 3630.09 3228.62C3623.28 3221.81 3614.05 3217.98 3604.42 3217.98ZM3604.42 3276.62C3600 3276.62 3595.68 3275.31 3592.01 3272.86C3588.34 3270.41 3585.48 3266.92 3583.78 3262.83C3582.09 3258.75 3581.65 3254.26 3582.51 3249.93C3583.38 3245.59 3585.5 3241.61 3588.63 3238.49C3591.75 3235.36 3595.73 3233.24 3600.06 3232.38C3604.4 3231.51 3608.89 3231.96 3612.97 3233.65C3617.05 3235.34 3620.54 3238.2 3622.99 3241.87C3625.45 3245.55 3626.76 3249.87 3626.76 3254.29C3626.76 3260.21 3624.4 3265.89 3620.21 3270.08C3616.03 3274.27 3610.34 3276.62 3604.42 3276.62Z" fill="#6C63FF"/>
<path opacity="0.1" d="M3604.42 3217.98C3597.24 3217.98 3590.22 3220.11 3584.26 3224.1C3578.29 3228.09 3573.63 3233.76 3570.89 3240.39C3568.14 3247.03 3567.42 3254.33 3568.82 3261.37C3570.22 3268.41 3573.68 3274.88 3578.76 3279.95C3583.83 3285.03 3590.3 3288.49 3597.34 3289.89C3604.38 3291.29 3611.68 3290.57 3618.31 3287.82C3624.94 3285.08 3630.61 3280.42 3634.6 3274.45C3638.59 3268.48 3640.72 3261.47 3640.72 3254.29C3640.72 3244.66 3636.89 3235.42 3630.09 3228.62C3623.28 3221.81 3614.05 3217.98 3604.42 3217.98ZM3604.42 3276.62C3600 3276.62 3595.68 3275.31 3592.01 3272.86C3588.34 3270.41 3585.48 3266.92 3583.78 3262.83C3582.09 3258.75 3581.65 3254.26 3582.51 3249.93C3583.38 3245.59 3585.5 3241.61 3588.63 3238.49C3591.75 3235.36 3595.73 3233.24 3600.06 3232.38C3604.4 3231.51 3608.89 3231.96 3612.97 3233.65C3617.05 3235.34 3620.54 3238.2 3622.99 3241.87C3625.45 3245.55 3626.76 3249.87 3626.76 3254.29C3626.76 3260.21 3624.4 3265.89 3620.21 3270.08C3616.03 3274.27 3610.34 3276.62 3604.42 3276.62Z" fill="black"/>
<path d="M3464.82 3190.06H3604.42V3328.25C3604.42 3333.07 3602.5 3337.7 3599.09 3341.11C3595.68 3344.52 3591.06 3346.44 3586.23 3346.44H3483.01C3478.18 3346.44 3473.56 3344.52 3470.15 3341.11C3466.74 3337.7 3464.82 3333.07 3464.82 3328.25V3190.06Z" fill="#6C63FF"/>
<path d="M3751 3346.44H1939V3407.87H3751V3346.44Z" fill="#E0E0E0"/>
<g opacity="0.7">
<path opacity="0.7" d="M3130.85 2935.39C3111.43 2864.89 3001.33 2813.4 2918.49 2801.99C2918.5 2801.47 2918.53 2800.95 2918.53 2800.43V2740.08C2918.62 2740.05 2918.71 2740.02 2918.8 2739.99V2737.7C2948.2 2726.76 2974.73 2709.28 2996.38 2686.59C3018.03 2663.89 3034.25 2636.56 3043.79 2606.68C3048.91 2597.42 3053.36 2587.81 3057.12 2577.92C3065.97 2574.7 3072.65 2560.11 3072.65 2542.59C3072.68 2536.59 3071.84 2530.62 3070.15 2524.87C3071.24 2515.95 3071.79 2506.96 3071.81 2497.97C3071.84 2466.54 3065.27 2435.45 3052.51 2406.72C3039.76 2378 3021.1 2352.27 2997.76 2331.22C2998.46 2327.61 2998.69 2323.93 2998.46 2320.26C2996.59 2291.29 2965.66 2271.61 2936.66 2270.3C2944.32 2261.61 2949.36 2250.92 2951.18 2239.49C2953.01 2228.05 2951.55 2216.32 2946.98 2205.68C2928.49 2232.62 2890.54 2235.48 2857.87 2235.69C2871.97 2230.23 2878.31 2210.7 2870.11 2198C2835.97 2243.77 2769.42 2252.24 2728.81 2292.39C2719.96 2301.17 2712.55 2311.28 2706.84 2322.36C2680.45 2343.39 2659.14 2370.1 2644.5 2400.5C2629.87 2430.91 2622.28 2464.23 2622.3 2497.97C2622.32 2506.88 2622.86 2515.78 2623.93 2524.63C2622.19 2530.46 2621.32 2536.51 2621.36 2542.59C2621.36 2560.19 2628.1 2574.82 2637 2577.95C2640.78 2587.88 2645.25 2597.52 2650.4 2606.81C2659.91 2636.52 2676.01 2663.7 2697.51 2686.31C2719 2708.92 2745.33 2726.37 2774.52 2737.37V2800.43C2774.52 2800.91 2774.54 2801.39 2774.55 2801.88C2691.4 2813.1 2580.42 2864.98 2561.17 2936.05C2544.55 2997.43 2526.8 3064.83 2517.98 3104.4C2593.65 3157.58 2752.43 3188.81 2851.94 3188.81C2946.48 3188.81 3101.01 3160.62 3174.45 3112.2C3166.5 3068.72 3148.2 2998.36 3130.85 2935.39Z" fill="url(#paint1_linear)"/>
</g>
<path d="M2851.73 3171.3C2942.94 3171.3 3092.01 3144.11 3162.86 3097.4C3155.18 3055.46 3137.53 2987.58 3120.79 2926.84C3099.48 2849.48 2964.99 2795.85 2884.76 2795.85H2807.45C2726.97 2795.85 2592.28 2849.79 2571.24 2927.48C2555.21 2986.69 2538.09 3051.71 2529.58 3089.88C2602.57 3141.18 2755.74 3171.3 2851.73 3171.3Z" fill="#6C63FF"/>
<path d="M2847.03 2721.72C2966.77 2721.72 3063.84 2624.64 3063.84 2504.88C3063.84 2385.12 2966.77 2288.03 2847.03 2288.03C2727.28 2288.03 2630.21 2385.12 2630.21 2504.88C2630.21 2624.64 2727.28 2721.72 2847.03 2721.72Z" fill="#72351C"/>
<path opacity="0.1" d="M2777.05 2685.49H2915.97V2796.65C2915.97 2815.07 2908.65 2832.74 2895.63 2845.77C2882.6 2858.8 2864.93 2866.12 2846.51 2866.12C2828.09 2866.12 2810.42 2858.8 2797.4 2845.77C2784.37 2832.74 2777.05 2815.07 2777.05 2796.65V2685.49Z" fill="black"/>
<path d="M2796.98 2680.35H2896.05C2901.33 2680.35 2906.4 2682.45 2910.14 2686.18C2913.87 2689.92 2915.97 2694.99 2915.97 2700.28V2791.5C2915.97 2809.93 2908.65 2827.6 2895.63 2840.62C2882.6 2853.65 2864.93 2860.97 2846.51 2860.97C2828.09 2860.97 2810.42 2853.65 2797.4 2840.62C2784.37 2827.6 2777.05 2809.93 2777.05 2791.5V2700.28C2777.05 2694.99 2779.15 2689.92 2782.89 2686.18C2786.62 2682.45 2791.69 2680.35 2796.98 2680.35Z" fill="#FDA57D"/>
<path opacity="0.1" d="M2777.31 2737.96C2822.08 2754.69 2871.37 2754.82 2916.23 2738.34V2721.27H2777.31V2737.96Z" fill="black"/>
<path d="M2847.03 2747.26C2957 2747.26 3046.15 2658.1 3046.15 2548.11C3046.15 2438.12 2957 2348.95 2847.03 2348.95C2737.05 2348.95 2647.9 2438.12 2647.9 2548.11C2647.9 2658.1 2737.05 2747.26 2847.03 2747.26Z" fill="#FDA57D"/>
<path opacity="0.1" d="M2705.19 2366.95C2705.19 2366.95 2789.11 2537.32 3025.83 2438.36L2970.72 2351.92L2873.03 2316.85L2705.19 2366.95Z" fill="black"/>
<path d="M2705.19 2364.45C2705.19 2364.45 2789.11 2534.82 3025.83 2435.85L2970.72 2349.42L2873.03 2314.34L2705.19 2364.45Z" fill="#72351C"/>
<path d="M2704.45 2352.94C2710.1 2335.42 2719.88 2319.51 2732.96 2306.56C2772.13 2267.83 2836.33 2259.66 2869.27 2215.51C2877.18 2227.76 2871.06 2246.6 2857.46 2251.87C2888.97 2251.66 2925.59 2248.9 2943.42 2222.92C2947.83 2233.18 2949.24 2244.49 2947.47 2255.52C2945.71 2266.56 2940.85 2276.87 2933.47 2285.25C2961.43 2286.52 2991.28 2305.5 2993.08 2333.45C2994.29 2352.06 2982.62 2369.69 2967.32 2380.36C2952.03 2391.04 2933.52 2395.94 2915.31 2399.96C2862.14 2411.68 2669.75 2460.82 2704.45 2352.94Z" fill="#72351C"/>
<path d="M3046.14 2549.85H3040.86L2938.16 2641.3C2839.21 2594.95 2766.56 2641.3 2766.56 2641.3L2658.85 2553.61L2647.99 2554.97C2649.46 2607.24 2671.43 2656.83 2709.15 2693.04C2746.87 2729.25 2797.31 2749.17 2849.59 2748.5C2901.86 2747.82 2951.78 2726.61 2988.56 2689.45C3025.33 2652.28 3046.02 2602.14 3046.14 2549.85ZM2846.72 2676.37C2807.99 2676.37 2776.58 2668.52 2776.58 2658.83C2776.58 2649.15 2807.99 2641.3 2846.72 2641.3C2885.46 2641.3 2916.87 2649.15 2916.87 2658.83C2916.87 2668.52 2885.46 2676.37 2846.72 2676.37Z" fill="#72351C"/>
<path d="M2647.82 2582.65C2658.05 2582.65 2666.35 2567.1 2666.35 2547.92C2666.35 2528.73 2658.05 2513.18 2647.82 2513.18C2637.59 2513.18 2629.3 2528.73 2629.3 2547.92C2629.3 2567.1 2637.59 2582.65 2647.82 2582.65Z" fill="#FDA57D"/>
<path d="M3046.12 2582.65C3056.35 2582.65 3064.65 2567.1 3064.65 2547.92C3064.65 2528.73 3056.35 2513.18 3046.12 2513.18C3035.89 2513.18 3027.6 2528.73 3027.6 2547.92C3027.6 2567.1 3035.89 2582.65 3046.12 2582.65Z" fill="#FDA57D"/>
<g opacity="0.7">
<path opacity="0.7" d="M3203.25 2902.63H2486.75C2471.81 2902.63 2459.71 2914.74 2459.71 2929.68V3319.38C2459.71 3334.32 2471.81 3346.44 2486.75 3346.44H3203.25C3218.19 3346.44 3230.29 3334.32 3230.29 3319.38V2929.68C3230.29 2914.74 3218.19 2902.63 3203.25 2902.63Z" fill="url(#paint2_linear)"/>
</g>
<path d="M3166.28 2910.82H2523.72C2496.08 2910.82 2473.67 2933.23 2473.67 2960.88V3296.37C2473.67 3324.02 2496.08 3346.44 2523.72 3346.44H3166.28C3193.92 3346.44 3216.33 3324.02 3216.33 3296.37V2960.88C3216.33 2933.23 3193.92 2910.82 3166.28 2910.82Z" fill="#535461"/>
<path d="M2845 3153.76C2858.88 3153.76 2870.13 3142.51 2870.13 3128.63C2870.13 3114.75 2858.88 3103.49 2845 3103.49C2831.12 3103.49 2819.87 3114.75 2819.87 3128.63C2819.87 3142.51 2831.12 3153.76 2845 3153.76Z" fill="white"/>
<path d="M3674.22 3407.87H2015.78V3433H3674.22V3407.87Z" fill="#E0E0E0"/>
<path opacity="0.1" d="M3674.22 3407.87H2015.78V3416.25H3674.22V3407.87Z" fill="black"/>
<path opacity="0.1" d="M3579.29 3190.06V3319.21C3579.29 3326.43 3576.42 3333.35 3571.32 3338.46C3566.21 3343.57 3559.29 3346.44 3552.07 3346.44H3566.03C3573.25 3346.44 3580.17 3343.57 3585.28 3338.46C3590.38 3333.35 3593.25 3326.43 3593.25 3319.21V3190.06H3579.29Z" fill="black"/>
<path d="M3492.37 3085.97C3490.01 3086.37 3487.36 3087.01 3486.2 3089.1C3484.37 3092.42 3487.69 3096.16 3490.72 3098.44C3496.31 3102.66 3502.21 3106.8 3506.01 3112.68C3509.82 3118.56 3511.01 3126.77 3506.85 3132.41C3501.43 3139.77 3488.48 3141.36 3487.22 3150.42C3486.42 3156.23 3491.45 3161.2 3496.54 3164.12C3509.12 3171.32 3525.33 3173.24 3534.43 3184.51C3538.2 3176.77 3546.63 3172.29 3555.03 3170.37C3563.43 3168.46 3572.16 3168.6 3580.68 3167.31C3583.43 3166.89 3586.52 3166.05 3587.75 3163.55C3590.13 3158.72 3583.35 3152.92 3585.69 3148.07C3587.47 3144.38 3592.71 3144.66 3596.53 3143.19C3602.76 3140.78 3605.33 3132.76 3603.56 3126.33C3601.79 3119.89 3596.8 3114.86 3591.55 3110.73C3577.41 3099.61 3560.39 3093.07 3543.19 3088.37C3535.19 3086.18 3525.8 3082.75 3517.48 3082.42C3509.46 3082.1 3500.31 3084.61 3492.37 3085.97Z" fill="#EEEEEE"/>
</g>
<defs>
<linearGradient id="paint0_linear" x1="3552.77" y1="3353.88" x2="3552.77" y2="3182.61" gradientUnits="userSpaceOnUse">
<stop stop-color="#808080" stop-opacity="0.25"/>
<stop offset="0.53514" stop-color="#808080" stop-opacity="0.12"/>
<stop offset="1" stop-color="#808080" stop-opacity="0.1"/>
</linearGradient>
<linearGradient id="paint1_linear" x1="396833" y1="646327" x2="396833" y2="120104" gradientUnits="userSpaceOnUse">
<stop stop-color="#808080" stop-opacity="0.25"/>
<stop offset="0.53514" stop-color="#808080" stop-opacity="0.12"/>
<stop offset="1" stop-color="#808080" stop-opacity="0.1"/>
</linearGradient>
<linearGradient id="paint2_linear" x1="376750" y1="276109" x2="376750" y2="170530" gradientUnits="userSpaceOnUse">
<stop stop-color="#808080" stop-opacity="0.25"/>
<stop offset="0.53514" stop-color="#808080" stop-opacity="0.12"/>
<stop offset="1" stop-color="#808080" stop-opacity="0.1"/>
</linearGradient>
<clipPath id="clip0">
<rect width="4374" height="4624" fill="white"/>
</clipPath>
</defs>
</svg>
