<svg width="755" height="475" viewBox="0 0 755 475" fill="none" xmlns="http://www.w3.org/2000/svg">
<g clip-path="url(#clip0)">
<path d="M719.961 475H81.8289C76.1541 475 70.7117 472.743 66.699 468.727C62.6863 464.71 60.432 459.262 60.432 453.581C291.755 426.669 518.73 426.669 741.358 453.581C741.358 459.262 739.103 464.71 735.091 468.727C731.078 472.743 725.636 475 719.961 475Z" fill="#CCCCCC"/>
<path d="M741.358 454.841L60.432 453.581L139.349 320.657L139.726 320.027V27.0763C139.726 23.5205 140.426 19.9994 141.785 16.7143C143.144 13.4291 145.136 10.4441 147.648 7.9298C150.16 5.41547 153.142 3.42106 156.423 2.06046C159.705 0.699855 163.223 -0.000297033 166.775 9.45307e-08H631.239C634.791 -0.000297033 638.308 0.699855 641.59 2.06046C644.872 3.42106 647.854 5.41547 650.366 7.9298C652.877 10.4441 654.87 13.4291 656.229 16.7143C657.588 19.9994 658.287 23.5205 658.287 27.0763V322.042L741.358 454.841Z" fill="#E6E6E6"/>
<path d="M166.158 18.8992C163.822 18.9018 161.583 19.8318 159.931 21.4853C158.279 23.1387 157.35 25.3805 157.347 27.7188V294.828C157.35 297.166 158.279 299.408 159.931 301.061C161.583 302.714 163.822 303.644 166.158 303.647H635.632C637.968 303.644 640.207 302.714 641.859 301.061C643.51 299.407 644.439 297.166 644.442 294.828V27.7188C644.439 25.3805 643.51 23.1388 641.859 21.4854C640.207 19.832 637.968 18.9019 635.632 18.8992H166.158Z" fill="white"/>
<path d="M169.243 338.926C168.522 338.927 167.815 339.135 167.207 339.525C166.6 339.914 166.116 340.47 165.813 341.126L141.496 394.044C141.231 394.619 141.116 395.253 141.159 395.885C141.203 396.517 141.405 397.129 141.747 397.662C142.088 398.196 142.559 398.635 143.114 398.94C143.67 399.244 144.293 399.403 144.926 399.403H656.294C656.938 399.403 657.571 399.239 658.133 398.925C658.695 398.611 659.168 398.159 659.506 397.61C659.845 397.062 660.037 396.437 660.066 395.793C660.095 395.149 659.959 394.509 659.671 393.933L633.239 341.015C632.928 340.386 632.446 339.857 631.849 339.488C631.253 339.118 630.564 338.924 629.863 338.926L169.243 338.926Z" fill="#CCCCCC"/>
<path d="M399.007 14.4894C402.135 14.4894 404.671 11.951 404.671 8.81966C404.671 5.68834 402.135 3.1499 399.007 3.1499C395.879 3.1499 393.343 5.68834 393.343 8.81966C393.343 11.951 395.879 14.4894 399.007 14.4894Z" fill="white"/>
<path d="M348.743 409.483C347.913 409.484 347.107 409.758 346.448 410.264C345.789 410.769 345.315 411.477 345.098 412.28L338.998 434.959C338.847 435.519 338.827 436.106 338.94 436.675C339.052 437.245 339.294 437.78 339.647 438.241C339.999 438.701 340.453 439.074 340.973 439.331C341.492 439.588 342.064 439.722 342.644 439.721H458.645C459.247 439.722 459.84 439.577 460.375 439.301C460.91 439.025 461.371 438.625 461.72 438.134C462.069 437.643 462.296 437.076 462.382 436.479C462.467 435.883 462.409 435.274 462.212 434.705L454.37 412.026C454.113 411.284 453.631 410.64 452.992 410.184C452.352 409.728 451.587 409.483 450.802 409.483H348.743Z" fill="#CCCCCC"/>
<path d="M658.287 315.616V320.657H139.349L139.739 320.026V315.616H658.287Z" fill="#CCCCCC"/>
<path d="M594.234 327.161C594.032 327.162 593.836 327.229 593.675 327.352C593.515 327.475 593.399 327.647 593.347 327.843L591.861 333.365C591.825 333.502 591.82 333.645 591.847 333.783C591.875 333.922 591.933 334.052 592.019 334.164C592.105 334.277 592.216 334.368 592.342 334.43C592.469 334.493 592.608 334.525 592.749 334.525H620.997C621.144 334.525 621.288 334.49 621.418 334.423C621.549 334.355 621.661 334.258 621.746 334.138C621.831 334.019 621.886 333.881 621.907 333.736C621.928 333.59 621.914 333.442 621.866 333.304L619.956 327.781C619.893 327.6 619.776 327.443 619.62 327.332C619.465 327.221 619.278 327.162 619.087 327.161H594.234Z" fill="#CCCCCC"/>
<path d="M552.989 327.161C552.787 327.162 552.59 327.229 552.43 327.352C552.269 327.475 552.154 327.647 552.101 327.843L550.616 333.365C550.579 333.502 550.574 333.645 550.601 333.783C550.629 333.922 550.688 334.052 550.774 334.164C550.859 334.277 550.97 334.368 551.096 334.43C551.223 334.493 551.362 334.525 551.503 334.525H579.751C579.898 334.525 580.042 334.49 580.173 334.423C580.303 334.355 580.415 334.258 580.5 334.138C580.585 334.019 580.641 333.881 580.661 333.736C580.682 333.59 580.668 333.442 580.62 333.304L578.71 327.781C578.648 327.6 578.531 327.443 578.375 327.332C578.219 327.221 578.033 327.162 577.842 327.161H552.989Z" fill="#CCCCCC"/>
<path d="M433.492 362.253H435.706L431.278 66.0194H429.064L429.152 71.9293H379.532L379.62 66.0194H377.406L372.978 362.253H375.192L375.479 343.046H433.205L433.492 362.253ZM430.301 148.758H378.383L378.924 112.56H429.76L430.301 148.758ZM430.334 150.974L430.875 187.172H377.809L378.35 150.974H430.334ZM430.908 189.388L431.449 225.586H377.235L377.776 189.388H430.908ZM431.482 227.803L432.023 264.001H376.661L377.202 227.803H431.482ZM432.056 266.217L432.597 302.415H376.086L376.627 266.217H432.056ZM429.185 74.1455L429.727 110.344H378.957L379.498 74.1455H429.185ZM375.512 340.829L376.053 304.631H432.631L433.172 340.829H375.512Z" fill="#3F3D56"/>
<path d="M393.375 168.052C413.312 168.052 429.475 151.872 429.475 131.914C429.475 111.956 413.312 95.7761 393.375 95.7761C373.437 95.7761 357.274 111.956 357.274 131.914C357.274 151.872 373.437 168.052 393.375 168.052Z" fill="#2F2E41"/>
<path d="M414.609 156.888L403.817 158.844L407.318 178.199L418.109 176.244L414.609 156.888Z" fill="#2F2E41"/>
<path d="M393.026 160.8L382.234 162.755L385.734 182.111L396.526 180.155L393.026 160.8Z" fill="#2F2E41"/>
<path d="M391.463 186.184C395.315 182.919 397.446 179.099 396.222 177.653C394.999 176.207 390.885 177.682 387.033 180.948C383.181 184.213 381.05 188.033 382.274 189.478C383.497 190.924 387.611 189.449 391.463 186.184Z" fill="#2F2E41"/>
<path d="M412.597 182.354C416.449 179.089 418.58 175.269 417.356 173.823C416.133 172.377 412.019 173.852 408.167 177.118C404.315 180.383 402.184 184.203 403.408 185.649C404.631 187.095 408.745 185.62 412.597 182.354Z" fill="#2F2E41"/>
<path d="M390.847 135.425C397.661 135.425 403.185 129.896 403.185 123.075C403.185 116.253 397.661 110.724 390.847 110.724C384.033 110.724 378.509 116.253 378.509 123.075C378.509 129.896 384.033 135.425 390.847 135.425Z" fill="white"/>
<path d="M385.776 122.764C388.048 122.764 389.889 120.921 389.889 118.647C389.889 116.374 388.048 114.53 385.776 114.53C383.505 114.53 381.664 116.374 381.664 118.647C381.664 120.921 383.505 122.764 385.776 122.764Z" fill="#3F3D56"/>
<path d="M421.853 92.6C422.396 79.2212 410.877 67.8893 396.125 67.2894C381.373 66.6896 368.975 77.049 368.432 90.4277C367.889 103.807 378.143 106.846 392.895 107.446C407.647 108.046 421.31 105.979 421.853 92.6Z" fill="#0088A9"/>
<path d="M377.635 129.367C378.334 126.314 371.024 122.031 361.307 119.801C351.59 117.572 343.146 118.24 342.447 121.293C341.748 124.347 349.058 128.63 358.775 130.859C368.492 133.089 376.936 132.421 377.635 129.367Z" fill="#2F2E41"/>
<path d="M448.499 141.164C449.198 138.111 441.888 133.828 432.171 131.598C422.454 129.369 414.01 130.037 413.311 133.09C412.611 136.144 419.922 140.427 429.639 142.656C439.355 144.886 447.799 144.218 448.499 141.164Z" fill="#2F2E41"/>
<path d="M403.29 146.155C403.484 147.22 403.467 148.312 403.24 149.37C403.012 150.427 402.579 151.43 401.964 152.32C401.35 153.209 400.566 153.969 399.658 154.556C398.75 155.142 397.735 155.544 396.672 155.738C395.608 155.932 394.517 155.914 393.461 155.685C392.405 155.457 391.404 155.022 390.515 154.406C389.627 153.79 388.868 153.005 388.283 152.095C387.698 151.186 387.297 150.169 387.105 149.105L387.102 149.089C386.293 144.614 389.749 143.031 394.219 142.221C398.689 141.411 402.48 141.681 403.29 146.155Z" fill="white"/>
<path d="M271.104 254.652C274.752 245.096 275.281 236.42 272.284 235.274C269.288 234.127 263.901 240.944 260.252 250.5C256.603 260.055 256.075 268.731 259.072 269.878C262.068 271.024 267.455 264.207 271.104 254.652Z" fill="#2F2E41"/>
<path d="M268.002 286.484C271.275 266.289 257.575 247.26 237.4 243.983C217.226 240.706 198.217 254.421 194.943 274.616C191.669 294.812 205.37 313.84 225.545 317.117C245.719 320.395 264.728 306.68 268.002 286.484Z" fill="#2F2E41"/>
<path d="M225.851 309.624H214.608V329.788H225.851V309.624Z" fill="#2F2E41"/>
<path d="M248.336 309.624H237.094V329.788H248.336V309.624Z" fill="#2F2E41"/>
<path d="M223.977 333.539C229.152 333.539 233.346 331.965 233.346 330.022C233.346 328.08 229.152 326.505 223.977 326.505C218.803 326.505 214.608 328.08 214.608 330.022C214.608 331.965 218.803 333.539 223.977 333.539Z" fill="#2F2E41"/>
<path d="M246.463 333.07C251.637 333.07 255.831 331.496 255.831 329.553C255.831 327.611 251.637 326.036 246.463 326.036C241.288 326.036 237.094 327.611 237.094 329.553C237.094 331.496 241.288 333.07 246.463 333.07Z" fill="#2F2E41"/>
<path d="M195.574 246.099C192.586 232.703 202.138 219.167 216.909 215.865C231.68 212.563 246.077 220.747 249.065 234.143C252.053 247.539 242.264 252.48 227.493 255.781C212.722 259.083 198.563 259.495 195.574 246.099Z" fill="#0088A9"/>
<path d="M206.509 271.299C207.883 268.397 201.513 262.491 192.279 258.107C183.046 253.724 174.447 252.522 173.072 255.424C171.697 258.325 178.068 264.231 187.301 268.615C196.534 272.999 205.134 274.2 206.509 271.299Z" fill="#2F2E41"/>
<path d="M71.2352 355.106C91.6736 355.106 108.242 338.52 108.242 318.06C108.242 297.601 91.6736 281.015 71.2352 281.015C50.7968 281.015 34.2282 297.601 34.2282 318.06C34.2282 338.52 50.7968 355.106 71.2352 355.106Z" fill="#2F2E41"/>
<path d="M65.6139 347.134H54.3712V367.298H65.6139V347.134Z" fill="#2F2E41"/>
<path d="M88.0991 347.134H76.8565V367.298H88.0991V347.134Z" fill="#2F2E41"/>
<path d="M63.7401 371.049C68.9144 371.049 73.109 369.474 73.109 367.532C73.109 365.59 68.9144 364.015 63.7401 364.015C58.5658 364.015 54.3712 365.59 54.3712 367.532C54.3712 369.474 58.5658 371.049 63.7401 371.049Z" fill="#2F2E41"/>
<path d="M86.2254 370.58C91.3997 370.58 95.5943 369.006 95.5943 367.063C95.5943 365.121 91.3997 363.546 86.2254 363.546C81.0511 363.546 76.8565 365.121 76.8565 367.063C76.8565 369.006 81.0511 370.58 86.2254 370.58Z" fill="#2F2E41"/>
<path d="M72.1721 321.343C79.1574 321.343 84.82 315.674 84.82 308.682C84.82 301.689 79.1574 296.021 72.1721 296.021C65.1868 296.021 59.5241 301.689 59.5241 308.682C59.5241 315.674 65.1868 321.343 72.1721 321.343Z" fill="white"/>
<path d="M72.1721 312.902C74.5005 312.902 76.3881 311.013 76.3881 308.682C76.3881 306.351 74.5005 304.461 72.1721 304.461C69.8437 304.461 67.9561 306.351 67.9561 308.682C67.9561 311.013 69.8437 312.902 72.1721 312.902Z" fill="#3F3D56"/>
<path d="M35.3371 283.609C32.349 270.213 41.9009 256.677 56.6719 253.375C71.4429 250.073 85.8396 258.257 88.8277 271.653C91.8158 285.049 82.0265 289.99 67.2555 293.291C52.4845 296.593 38.3253 297.005 35.3371 283.609Z" fill="#E6E6E6"/>
<path d="M98.2188 185.715C101.867 176.159 102.396 167.484 99.3991 166.337C96.4024 165.19 91.0154 172.007 87.3668 181.563C83.7183 191.118 83.1898 199.794 86.1865 200.941C89.1832 202.087 94.5702 195.271 98.2188 185.715Z" fill="#2F2E41"/>
<path d="M95.1164 217.547C98.3902 197.352 84.6896 178.324 64.5151 175.046C44.3406 171.769 25.3319 185.484 22.0581 205.679C18.7842 225.875 32.4848 244.903 52.6593 248.18C72.8338 251.458 91.8425 237.743 95.1164 217.547Z" fill="#2F2E41"/>
<path d="M52.9659 240.687H41.7233V260.851H52.9659V240.687Z" fill="#2F2E41"/>
<path d="M75.4511 240.687H64.2085V260.851H75.4511V240.687Z" fill="#2F2E41"/>
<path d="M51.0921 264.602C56.2664 264.602 60.461 263.028 60.461 261.085C60.461 259.143 56.2664 257.568 51.0921 257.568C45.9179 257.568 41.7233 259.143 41.7233 261.085C41.7233 263.028 45.9179 264.602 51.0921 264.602Z" fill="#2F2E41"/>
<path d="M73.5774 264.133C78.7517 264.133 82.9463 262.559 82.9463 260.616C82.9463 258.674 78.7517 257.099 73.5774 257.099C68.4031 257.099 64.2085 258.674 64.2085 260.616C64.2085 262.559 68.4031 264.133 73.5774 264.133Z" fill="#2F2E41"/>
<path d="M59.5241 214.896C66.5094 214.896 72.1721 209.227 72.1721 202.235C72.1721 195.242 66.5094 189.574 59.5241 189.574C52.5388 189.574 46.8761 195.242 46.8761 202.235C46.8761 209.227 52.5388 214.896 59.5241 214.896Z" fill="white"/>
<path d="M59.5241 206.455C61.8525 206.455 63.7401 204.566 63.7401 202.235C63.7401 199.904 61.8525 198.015 59.5241 198.015C57.1957 198.015 55.3081 199.904 55.3081 202.235C55.3081 204.566 57.1957 206.455 59.5241 206.455Z" fill="#3F3D56"/>
<path d="M22.6892 177.162C19.7011 163.766 29.253 150.23 44.024 146.928C58.795 143.627 73.1916 151.81 76.1798 165.206C79.1679 178.602 69.3786 183.543 54.6076 186.844C39.8366 190.146 25.6773 190.559 22.6892 177.162Z" fill="#0088A9"/>
<path d="M33.6234 202.362C34.9982 199.46 28.6276 193.554 19.3942 189.171C10.1609 184.787 1.56133 183.585 0.186556 186.487C-1.18822 189.388 5.18242 195.294 14.4158 199.678C23.6491 204.062 32.2486 205.264 33.6234 202.362Z" fill="#2F2E41"/>
<path d="M40.4095 224.978C40.4095 228.604 49.7355 235.763 60.0841 235.763C70.4327 235.763 80.1356 225.556 80.1356 221.93C80.1356 218.304 70.4326 222.633 60.0841 222.633C49.7356 222.633 40.4095 221.352 40.4095 224.978Z" fill="white"/>
<path d="M94.9711 70.1632C94.2876 70.164 93.6324 70.4361 93.1491 70.9199C92.6658 71.4036 92.394 72.0596 92.3932 72.7437V179.405C92.394 180.089 92.6658 180.745 93.1491 181.229C93.6324 181.713 94.2876 181.985 94.9711 181.986H341.585C342.269 181.985 342.924 181.713 343.407 181.229C343.89 180.745 344.162 180.089 344.163 179.405V72.7437C344.162 72.0596 343.89 71.4036 343.407 70.9199C342.924 70.4361 342.269 70.164 341.585 70.1632H94.9711Z" fill="#0088A9"/>
<path d="M161.561 151.124C175.381 151.124 186.584 139.909 186.584 126.074C186.584 112.24 175.381 101.025 161.561 101.025C147.741 101.025 136.537 112.24 136.537 126.074C136.537 139.909 147.741 151.124 161.561 151.124Z" fill="white"/>
<path d="M218.037 122.742C217.27 122.754 216.538 123.068 215.999 123.616C215.461 124.164 215.159 124.902 215.159 125.67C215.159 126.439 215.461 127.177 215.999 127.724C216.538 128.272 217.27 128.586 218.037 128.599H297.045C297.429 128.606 297.811 128.536 298.169 128.395C298.526 128.254 298.853 128.044 299.129 127.776C299.405 127.509 299.626 127.189 299.779 126.836C299.932 126.483 300.014 126.103 300.021 125.718C300.027 125.334 299.958 124.951 299.816 124.594C299.675 124.236 299.464 123.909 299.197 123.633C298.93 123.356 298.61 123.135 298.257 122.982C297.905 122.829 297.525 122.748 297.141 122.742C297.109 122.741 297.077 122.741 297.045 122.742H218.037Z" fill="white"/>
<path d="M218.037 105.773C217.27 105.786 216.538 106.1 215.999 106.648C215.461 107.195 215.159 107.933 215.159 108.702C215.159 109.47 215.461 110.208 215.999 110.756C216.538 111.304 217.27 111.618 218.037 111.63H257.492C257.876 111.637 258.258 111.568 258.616 111.427C258.973 111.285 259.3 111.075 259.576 110.807C259.853 110.54 260.074 110.22 260.227 109.867C260.38 109.514 260.462 109.135 260.468 108.75C260.474 108.365 260.405 107.983 260.263 107.625C260.122 107.267 259.912 106.94 259.644 106.664C259.377 106.387 259.057 106.166 258.705 106.014C258.352 105.861 257.972 105.779 257.588 105.773C257.556 105.772 257.524 105.772 257.492 105.773H218.037Z" fill="white"/>
<path d="M218.037 140.518C217.27 140.531 216.538 140.845 215.999 141.393C215.461 141.941 215.159 142.679 215.159 143.447C215.159 144.216 215.461 144.954 215.999 145.501C216.538 146.049 217.27 146.363 218.037 146.376H297.045C297.429 146.383 297.811 146.313 298.169 146.172C298.526 146.031 298.853 145.821 299.129 145.553C299.405 145.286 299.626 144.966 299.779 144.613C299.932 144.26 300.014 143.88 300.021 143.495C300.027 143.111 299.958 142.728 299.816 142.37C299.675 142.012 299.464 141.686 299.197 141.41C298.93 141.133 298.61 140.912 298.257 140.759C297.905 140.606 297.525 140.525 297.141 140.518C297.109 140.518 297.077 140.518 297.045 140.518H218.037Z" fill="white"/>
<path d="M601.747 337.811C604.744 336.664 604.216 327.989 600.567 318.433C596.919 308.877 591.532 302.061 588.535 303.207C585.538 304.354 586.067 313.03 589.715 322.585C593.364 332.141 598.751 338.958 601.747 337.811Z" fill="#2F2E41"/>
<path d="M627.541 392.792C647.716 389.515 661.416 370.487 658.142 350.291C654.868 330.096 635.86 316.381 615.685 319.658C595.511 322.935 581.81 341.964 585.084 362.159C588.358 382.355 607.367 396.069 627.541 392.792Z" fill="#2F2E41"/>
<path d="M638.477 385.299H627.235L629.435 409.447L638.497 406.982L638.477 385.299Z" fill="#2F2E41"/>
<path d="M613.967 385.362H602.725L604.924 409.509L613.577 406.982L613.967 385.362Z" fill="#2F2E41"/>
<path d="M604.605 410.644C609.765 410.266 613.834 408.39 613.693 406.452C613.551 404.515 609.253 403.251 604.093 403.629C598.932 404.006 594.863 405.883 595.005 407.82C595.146 409.757 599.444 411.022 604.605 410.644Z" fill="#2F2E41"/>
<path d="M620.676 359.508C627.662 359.508 633.324 353.839 633.324 346.847C633.324 339.854 627.662 334.186 620.676 334.186C613.691 334.186 608.028 339.854 608.028 346.847C608.028 353.839 613.691 359.508 620.676 359.508Z" fill="white"/>
<path d="M620.676 351.067C623.005 351.067 624.892 349.177 624.892 346.847C624.892 344.516 623.005 342.626 620.676 342.626C618.348 342.626 616.46 344.516 616.46 346.847C616.46 349.177 618.348 351.067 620.676 351.067Z" fill="#3F3D56"/>
<path d="M665.39 333.889C671.461 325.66 674.291 317.443 671.711 315.535C669.13 313.627 662.117 318.751 656.045 326.979C649.974 335.208 647.144 343.425 649.724 345.333C652.305 347.241 659.319 342.118 665.39 333.889Z" fill="#2F2E41"/>
<path d="M603.557 375.327C603.557 372.338 611.244 366.438 619.773 366.438C628.302 366.438 636.299 374.851 636.299 377.839C636.299 380.827 628.302 377.259 619.773 377.259C611.244 377.259 603.557 378.315 603.557 375.327Z" fill="white"/>
<path d="M725.386 325.611L522.814 297.5C521.235 297.279 519.808 296.44 518.846 295.166C517.883 293.893 517.465 292.29 517.682 290.709L540.455 126.268C540.675 124.687 541.514 123.258 542.786 122.295C544.057 121.332 545.659 120.913 547.239 121.131L749.811 149.242C751.39 149.463 752.817 150.302 753.779 151.575C754.741 152.848 755.16 154.452 754.943 156.033L732.17 320.474C731.949 322.055 731.111 323.484 729.839 324.447C728.567 325.41 726.966 325.829 725.386 325.611Z" fill="#0088A9"/>
<path d="M652.816 274.292L549.397 259.94C549.268 259.924 549.14 259.895 549.015 259.856L609.672 181.833C610.044 181.346 610.538 180.966 611.104 180.733C611.67 180.5 612.288 180.422 612.894 180.506C613.5 180.59 614.073 180.834 614.555 181.212C615.036 181.591 615.408 182.09 615.634 182.66L640.578 244.13L641.774 247.071L652.816 274.292Z" fill="white"/>
<path opacity="0.2" d="M652.816 274.291L617.506 269.391L638.33 246.593L639.829 244.951L640.579 244.13L641.774 247.072L652.816 274.291Z" fill="black"/>
<path d="M710.398 282.282L620.95 269.869L641.774 247.071L643.273 245.429L670.408 215.718C670.877 215.272 671.434 214.929 672.044 214.713C672.654 214.496 673.302 214.41 673.947 214.461C674.592 214.511 675.22 214.697 675.788 215.006C676.357 215.315 676.854 215.74 677.248 216.254C677.348 216.398 677.437 216.549 677.517 216.705L710.398 282.282Z" fill="white"/>
<path d="M654.074 208.32C662.616 208.32 669.541 201.388 669.541 192.837C669.541 184.285 662.616 177.353 654.074 177.353C645.531 177.353 638.607 184.285 638.607 192.837C638.607 201.388 645.531 208.32 654.074 208.32Z" fill="white"/>
<path d="M569.419 136.37L550.694 133.772L548.098 152.516L566.823 155.115L569.419 136.37Z" fill="#3F3D56"/>
<path d="M657.511 321.774C660.499 308.378 650.947 294.842 636.176 291.54C621.405 288.238 607.009 296.421 604.021 309.818C601.032 323.214 610.822 328.154 625.593 331.456C640.364 334.758 654.523 335.17 657.511 321.774Z" fill="#F2F2F2"/>
<path d="M629.26 410.584C634.42 410.207 638.489 408.33 638.348 406.393C638.206 404.456 633.908 403.191 628.747 403.569C623.587 403.947 619.518 405.823 619.66 407.761C619.801 409.698 624.099 410.962 629.26 410.584Z" fill="#2F2E41"/>
</g>
<defs>
<clipPath id="clip0">
<rect width="755" height="475" fill="white"/>
</clipPath>
</defs>
</svg>
