<svg id="fd577a60-d552-4fe8-bffb-d9cccd3352c0" xmlns="http://www.w3.org/2000/svg" xmlns:xlink="http://www.w3.org/1999/xlink" viewBox="0 0 788.38 719"><defs><style>.cls-1{opacity:0.69;}.cls-2{fill:#00b0ff;}.cls-2,.cls-3,.cls-4,.cls-5,.cls-6,.cls-7{opacity:0.82;}.cls-3{fill:#514abf;}.cls-4{fill:url(#linear-gradient);}.cls-5{fill:#3ad29f;}.cls-6{fill:url(#linear-gradient-2);}.cls-7{isolation:isolate;}</style><linearGradient id="linear-gradient" x1="365" y1="115" x2="365" y2="434" gradientTransform="matrix(1, 0, 0, -1, 0, 720)" gradientUnits="userSpaceOnUse"><stop offset="0" stop-opacity="0.12"/><stop offset="0.55" stop-opacity="0.09"/><stop offset="1" stop-opacity="0.02"/></linearGradient><linearGradient id="linear-gradient-2" x1="323.01" y1="396.34" x2="323.01" y2="455.69" gradientTransform="translate(570.68 177.01) rotate(130.45)" gradientUnits="userSpaceOnUse"><stop offset="0" stop-color="gray" stop-opacity="0.25"/><stop offset="0.54" stop-color="gray" stop-opacity="0.12"/><stop offset="1" stop-color="gray" stop-opacity="0.1"/></linearGradient></defs><title>undraw_Mail_sent_qwwx-2</title><polygon class="cls-2" points="125 410 0 268 374 0 748 268 621 410 125 410"/><polygon class="cls-3" points="125 410 0 268 374 0 748 268 621 410 125 410"/><rect class="cls-2" y="286" width="730" height="319"/><rect class="cls-4" y="286" width="730" height="319"/><polygon class="cls-2" points="748 719 0 719 0 268 374 494 748 268 748 719"/><polygon class="cls-5" points="652.58 116.82 573.25 55.99 363.11 330.04 246.4 240.55 185.57 319.88 341.94 439.6 341.94 439.6 382.04 469.65 652.58 116.82"/><polygon class="cls-6" points="3.15 166.88 0.18 168.33 0.52 167.73 0.26 167.81 0.63 167.54 40.65 96.31 61.11 113.75 78.67 130 73.63 132.47 79.29 142.46 3.15 166.88"/><polygon class="cls-2" points="59.09 115.62 75.13 130.49 2.41 166.65 41.11 117.05 59.09 115.62"/><polygon class="cls-7" points="59.09 115.62 75.13 130.49 2.41 166.65 41.11 117.05 59.09 115.62"/><polygon class="cls-2" points="40.37 99.66 2.41 166.65 59.09 115.62 40.37 99.66"/><polygon class="cls-2" points="75.6 142.01 2.49 166.16 63.6 120.54 75.6 142.01"/><polygon class="cls-2" points="686.96 38.73 670.94 66.5 788.38 85.62 712.74 32.95 686.96 38.73"/><polygon class="cls-7" points="686.96 38.73 670.94 66.5 788.38 85.62 712.74 32.95 686.96 38.73"/><polygon class="cls-2" points="706.25 8.29 788.38 85.62 686.96 38.73 706.25 8.29"/><polygon class="cls-2" points="675.27 82.82 788.06 84.98 682.77 47.58 675.27 82.82"/></svg>