<svg width="134" height="71" viewBox="0 0 134 71" fill="none" xmlns="http://www.w3.org/2000/svg">
<path d="M127.032 67.0072C127.032 68.6896 128.383 70.0536 130.05 70.0536C131.717 70.0536 133.068 68.6896 133.068 67.0072C133.068 65.3247 131.717 63.9608 130.05 63.9608C128.383 63.9608 127.032 65.3247 127.032 67.0072Z" fill="#9871F5"/>
<path d="M105.953 67.0072C105.953 68.6896 107.304 70.0535 108.971 70.0535C110.637 70.0535 111.988 68.6896 111.988 67.0072C111.988 65.3247 110.637 63.9608 108.971 63.9608C107.304 63.9608 105.953 65.3247 105.953 67.0072Z" fill="#9871F5"/>
<path d="M84.8891 67.0072C84.8891 68.6896 86.2402 70.0535 87.9068 70.0535C89.5735 70.0535 90.9246 68.6896 90.9246 67.0072C90.9246 65.3247 89.5735 63.9608 87.9068 63.9608C86.2402 63.9608 84.8891 65.3247 84.8891 67.0072Z" fill="#9871F5"/>
<path d="M63.8098 67.0072C63.8098 68.6896 65.1608 70.0535 66.8275 70.0535C68.4941 70.0535 69.8452 68.6896 69.8452 67.0072C69.8452 65.3247 68.4941 63.9608 66.8275 63.9608C65.1608 63.9608 63.8098 65.3247 63.8098 67.0072Z" fill="#9871F5"/>
<path d="M42.7465 67.0072C42.7465 68.6896 44.0976 70.0536 45.7642 70.0536C47.4308 70.0536 48.7819 68.6896 48.7819 67.0072C48.7819 65.3247 47.4308 63.9608 45.7642 63.9608C44.0976 63.9608 42.7465 65.3247 42.7465 67.0072Z" fill="#9871F5"/>
<path d="M21.6671 67.0072C21.6671 68.6896 23.0182 70.0535 24.6848 70.0535C26.3514 70.0535 27.7025 68.6896 27.7025 67.0072C27.7025 65.3247 26.3514 63.9608 24.6848 63.9608C23.0182 63.9608 21.6671 65.3247 21.6671 67.0072Z" fill="#9871F5"/>
<path d="M0.603474 67.0072C0.603474 68.6896 1.95456 70.0535 3.62119 70.0535C5.28783 70.0535 6.63892 68.6896 6.63892 67.0072C6.63892 65.3247 5.28783 63.9608 3.6212 63.9608C1.95456 63.9608 0.603474 65.3247 0.603474 67.0072Z" fill="#9871F5"/>
<path d="M127.032 45.7293C127.032 47.4117 128.383 48.7756 130.05 48.7756C131.717 48.7756 133.068 47.4117 133.068 45.7293C133.068 44.0469 131.717 42.683 130.05 42.683C128.383 42.683 127.032 44.0469 127.032 45.7293Z" fill="#9871F5"/>
<path d="M105.953 45.7293C105.953 47.4117 107.304 48.7756 108.971 48.7756C110.637 48.7756 111.988 47.4117 111.988 45.7293C111.988 44.0469 110.637 42.683 108.971 42.683C107.304 42.683 105.953 44.0469 105.953 45.7293Z" fill="#9871F5"/>
<path d="M84.8891 45.7293C84.8891 47.4117 86.2402 48.7756 87.9068 48.7756C89.5735 48.7756 90.9246 47.4117 90.9246 45.7293C90.9246 44.0469 89.5735 42.683 87.9068 42.683C86.2402 42.683 84.8891 44.0469 84.8891 45.7293Z" fill="#9871F5"/>
<path d="M63.8098 45.7293C63.8098 47.4117 65.1608 48.7756 66.8275 48.7756C68.4941 48.7756 69.8452 47.4117 69.8452 45.7293C69.8452 44.0469 68.4941 42.683 66.8275 42.683C65.1608 42.683 63.8098 44.0469 63.8098 45.7293Z" fill="#9871F5"/>
<path d="M42.7465 45.7293C42.7465 47.4117 44.0976 48.7756 45.7642 48.7756C47.4308 48.7756 48.7819 47.4117 48.7819 45.7293C48.7819 44.0469 47.4308 42.683 45.7642 42.683C44.0976 42.683 42.7465 44.0469 42.7465 45.7293Z" fill="#9871F5"/>
<path d="M21.667 45.7293C21.667 47.4117 23.0181 48.7756 24.6847 48.7756C26.3514 48.7756 27.7025 47.4117 27.7025 45.7293C27.7025 44.0468 26.3514 42.683 24.6847 42.683C23.0181 42.683 21.667 44.0468 21.667 45.7293Z" fill="#9871F5"/>
<path d="M0.603474 45.7293C0.603474 47.4117 1.95456 48.7756 3.62119 48.7756C5.28783 48.7756 6.63892 47.4117 6.63892 45.7293C6.63892 44.0469 5.28783 42.683 3.6212 42.683C1.95456 42.683 0.603474 44.0469 0.603474 45.7293Z" fill="#9871F5"/>
<path d="M127.032 24.467C127.032 26.1495 128.383 27.5134 130.05 27.5134C131.717 27.5134 133.068 26.1495 133.068 24.467C133.068 22.7846 131.717 21.4207 130.05 21.4207C128.383 21.4207 127.032 22.7846 127.032 24.467Z" fill="#9871F5"/>
<path d="M105.953 24.467C105.953 26.1495 107.304 27.5134 108.971 27.5134C110.637 27.5134 111.988 26.1495 111.988 24.467C111.988 22.7846 110.637 21.4207 108.971 21.4207C107.304 21.4207 105.953 22.7846 105.953 24.467Z" fill="#9871F5"/>
<path d="M84.8891 24.467C84.8891 26.1495 86.2401 27.5134 87.9068 27.5134C89.5734 27.5134 90.9245 26.1495 90.9245 24.467C90.9245 22.7846 89.5734 21.4207 87.9068 21.4207C86.2401 21.4207 84.8891 22.7846 84.8891 24.467Z" fill="#9871F5"/>
<path d="M63.8098 24.467C63.8098 26.1495 65.1608 27.5134 66.8275 27.5134C68.4941 27.5134 69.8452 26.1495 69.8452 24.467C69.8452 22.7846 68.4941 21.4207 66.8275 21.4207C65.1608 21.4207 63.8098 22.7846 63.8098 24.467Z" fill="#9871F5"/>
<path d="M42.7465 24.467C42.7465 26.1495 44.0976 27.5134 45.7642 27.5134C47.4308 27.5134 48.7819 26.1495 48.7819 24.467C48.7819 22.7846 47.4308 21.4207 45.7642 21.4207C44.0976 21.4207 42.7465 22.7846 42.7465 24.467Z" fill="#9871F5"/>
<path d="M21.667 24.467C21.667 26.1495 23.0181 27.5134 24.6847 27.5134C26.3514 27.5134 27.7025 26.1495 27.7025 24.467C27.7025 22.7846 26.3514 21.4207 24.6847 21.4207C23.0181 21.4207 21.667 22.7846 21.667 24.467Z" fill="#9871F5"/>
<path d="M0.603474 24.467C0.603474 26.1495 1.95456 27.5134 3.62119 27.5134C5.28783 27.5134 6.63892 26.1495 6.63892 24.467C6.63892 22.7846 5.28783 21.4207 3.6212 21.4207C1.95456 21.4207 0.603474 22.7846 0.603474 24.467Z" fill="#9871F5"/>
<path d="M127.03 3.19024C127.03 4.87267 128.381 6.23656 130.048 6.23656C131.714 6.23656 133.065 4.87267 133.065 3.19024C133.065 1.50781 131.714 0.143921 130.048 0.143921C128.381 0.143921 127.03 1.50781 127.03 3.19024Z" fill="#9871F5"/>
<path d="M105.953 3.18975C105.953 4.87218 107.304 6.23607 108.971 6.23607C110.637 6.23607 111.988 4.87218 111.988 3.18975C111.988 1.50732 110.637 0.143433 108.971 0.143432C107.304 0.143432 105.953 1.50732 105.953 3.18975Z" fill="#9871F5"/>
<path d="M84.8891 3.18975C84.8891 4.87218 86.2401 6.23607 87.9068 6.23607C89.5734 6.23607 90.9245 4.87218 90.9245 3.18975C90.9245 1.50732 89.5734 0.143433 87.9068 0.143432C86.2401 0.143432 84.8891 1.50732 84.8891 3.18975Z" fill="#9871F5"/>
<path d="M63.8098 3.18975C63.8098 4.87218 65.1608 6.23607 66.8275 6.23607C68.4941 6.23607 69.8452 4.87218 69.8452 3.18975C69.8452 1.50732 68.4941 0.143433 66.8275 0.143432C65.1608 0.143432 63.8098 1.50732 63.8098 3.18975Z" fill="#9871F5"/>
<path d="M42.7465 3.18975C42.7465 4.87218 44.0976 6.23607 45.7642 6.23607C47.4308 6.23607 48.7819 4.87218 48.7819 3.18975C48.7819 1.50732 47.4308 0.143433 45.7642 0.143432C44.0976 0.143432 42.7465 1.50732 42.7465 3.18975Z" fill="#9871F5"/>
<path d="M21.6671 3.18975C21.6671 4.87218 23.0182 6.23607 24.6848 6.23607C26.3514 6.23607 27.7025 4.87218 27.7025 3.18975C27.7025 1.50732 26.3514 0.143433 24.6848 0.143432C23.0182 0.143432 21.6671 1.50732 21.6671 3.18975Z" fill="#9871F5"/>
<path d="M0.603474 3.18975C0.603474 4.87218 1.95456 6.23607 3.62119 6.23607C5.28783 6.23607 6.63892 4.87218 6.63892 3.18975C6.63892 1.50732 5.28783 0.143433 3.6212 0.143432C1.95456 0.143432 0.603474 1.50732 0.603474 3.18975Z" fill="#9871F5"/>
</svg>
