<svg width="28" height="50" viewBox="0 0 28 50" fill="none" xmlns="http://www.w3.org/2000/svg">
<path d="M21.5269 3.55906C21.5269 5.24152 22.878 6.60534 24.5446 6.60534C26.2113 6.60534 27.5623 5.24152 27.5623 3.55906C27.5623 1.87661 26.2113 0.512695 24.5446 0.512695C22.878 0.512695 21.5269 1.87661 21.5269 3.55906Z" fill="#9871F5"/>
<path d="M21.5274 24.8188C21.5274 26.5013 22.8784 27.8652 24.5451 27.8652C26.2117 27.8652 27.5628 26.5013 27.5628 24.8188C27.5628 23.1364 26.2117 21.7725 24.5451 21.7725C22.8784 21.7725 21.5274 23.1364 21.5274 24.8188Z" fill="#9871F5"/>
<path d="M21.5274 46.0979C21.5274 47.7803 22.8784 49.1441 24.5451 49.1441C26.2117 49.1441 27.5628 47.7803 27.5628 46.0979C27.5628 44.4155 26.2117 43.0516 24.5451 43.0516C22.8784 43.0516 21.5274 44.4155 21.5274 46.0979Z" fill="#9871F5"/>
<path d="M0.447697 3.55852C0.447696 5.24097 1.79878 6.60479 3.46542 6.60479C5.13205 6.60479 6.48312 5.24097 6.48312 3.55852C6.48312 1.87606 5.13205 0.512146 3.46542 0.512146C1.79878 0.512146 0.447697 1.87606 0.447697 3.55852Z" fill="#9871F5"/>
<path d="M0.447697 24.8209C0.447696 26.5033 1.79878 27.8672 3.46542 27.8672C5.13205 27.8672 6.48312 26.5033 6.48312 24.8209C6.48312 23.1384 5.13205 21.7745 3.46542 21.7745C1.79878 21.7745 0.447697 23.1384 0.447697 24.8209Z" fill="#9871F5"/>
<path d="M0.447697 46.0978C0.447696 47.7802 1.79878 49.144 3.46542 49.144C5.13205 49.144 6.48312 47.7802 6.48312 46.0978C6.48312 44.4153 5.13205 43.0515 3.46542 43.0515C1.79878 43.0515 0.447697 44.4153 0.447697 46.0978Z" fill="#9871F5"/>
</svg>
