<svg width="70" height="35" viewBox="0 0 70 35" fill="none" xmlns="http://www.w3.org/2000/svg">
<path d="M63.4769 9.74742C63.4769 11.4299 64.828 12.7937 66.4946 12.7937C68.1612 12.7937 69.5123 11.4299 69.5123 9.74742C69.5123 8.06499 68.1612 6.70111 66.4946 6.70111C64.828 6.70111 63.4769 8.06499 63.4769 9.74742Z" fill="#9871F5"/>
<path d="M63.4769 31.0243C63.4769 32.7068 64.828 34.0707 66.4946 34.0707C68.1612 34.0707 69.5123 32.7068 69.5123 31.0243C69.5123 29.3419 68.1612 27.978 66.4946 27.978C64.828 27.978 63.4769 29.3419 63.4769 31.0243Z" fill="#9871F5"/>
<path d="M42.4133 9.74742C42.4133 11.4299 43.7644 12.7937 45.431 12.7937C47.0976 12.7937 48.4487 11.4299 48.4487 9.74742C48.4487 8.06499 47.0976 6.70111 45.431 6.70111C43.7644 6.70111 42.4133 8.06499 42.4133 9.74742Z" fill="#9871F5"/>
<path d="M42.4133 31.0243C42.4133 32.7068 43.7644 34.0707 45.431 34.0707C47.0976 34.0707 48.4487 32.7068 48.4487 31.0243C48.4487 29.3419 47.0976 27.978 45.431 27.978C43.7644 27.978 42.4133 29.3419 42.4133 31.0243Z" fill="#9871F5"/>
<path d="M21.3338 9.74742C21.3338 11.4299 22.6848 12.7937 24.3515 12.7937C26.0181 12.7937 27.3692 11.4299 27.3692 9.74742C27.3692 8.06499 26.0181 6.70111 24.3515 6.70111C22.6848 6.70111 21.3338 8.06499 21.3338 9.74742Z" fill="#9871F5"/>
<path d="M21.3338 31.0243C21.3338 32.7068 22.6848 34.0707 24.3515 34.0707C26.0181 34.0707 27.3692 32.7068 27.3692 31.0243C27.3692 29.3419 26.0181 27.978 24.3515 27.978C22.6848 27.978 21.3338 29.3419 21.3338 31.0243Z" fill="#9871F5"/>
<path d="M0.27071 9.74742C0.27071 11.4299 1.62179 12.7937 3.28843 12.7937C4.95507 12.7937 6.30615 11.4299 6.30615 9.74742C6.30615 8.06499 4.95507 6.70111 3.28843 6.70111C1.62179 6.70111 0.27071 8.06499 0.27071 9.74742Z" fill="#9871F5"/>
<path d="M0.27071 31.0243C0.27071 32.7068 1.62179 34.0707 3.28843 34.0707C4.95507 34.0707 6.30615 32.7068 6.30615 31.0243C6.30615 29.3419 4.95507 27.978 3.28843 27.978C1.62179 27.978 0.27071 29.3419 0.27071 31.0243Z" fill="#9871F5"/>
</svg>
